<?xml version="1.0" encoding="utf-8"?>
<!-- Generator: Adobe Illustrator 17.0.0, SVG Export Plug-In . SVG Version: 6.00 Build 0)  -->
<!DOCTYPE svg PUBLIC "-//W3C//DTD SVG 1.1//EN" "http://www.w3.org/Graphics/SVG/1.1/DTD/svg11.dtd">
<svg version="1.1" id="Layer_1" xmlns="http://www.w3.org/2000/svg" xmlns:xlink="http://www.w3.org/1999/xlink" x="0px" y="0px"
	 width="400px" height="1080px" viewBox="0 0 400 1080" enable-background="new 0 0 400 1080" xml:space="preserve">
<path fill="#8E8E93" d="M227,1004.167c0,15.372-12.461,27.833-27.833,27.833h-0.333c-15.372,0-27.833-12.461-27.833-27.833V139.833
	C171,124.461,183.461,112,198.833,112h0.333C214.539,112,227,124.461,227,139.833V1004.167z"/>
<path fill="#FF2D55" d="M227,868.032c0,14.25-12.536,25.801-28,25.801l0,0c-15.464,0-28-11.552-28-25.801V137.301
	c0-14.25,12.536-25.801,28-25.801l0,0c15.464,0,28,11.552,28,25.801V868.032z"/>
<path fill="#FF9500" d="M227,728c0,15.464-12.536,28-28,28l0,0c-15.464,0-28-12.536-28-28V140c0-15.464,12.536-28,28-28l0,0
	c15.464,0,28,12.536,28,28V728z"/>
<path fill="#FFCC00" d="M227,587.467c0,15.067-12.536,27.281-28,27.281l0,0c-15.464,0-28-12.214-28-27.281V139.281
	C171,124.214,183.536,112,199,112l0,0c15.464,0,28,12.214,28,27.281V587.467z"/>
<path fill="#5AC8FA" d="M228,438.93c0,15.228-12.658,27.572-28.5,27.572l0,0c-15.842,0-28.5-12.345-28.5-27.572V139.572
	C171,124.345,183.658,112,199.5,112l0,0c15.842,0,28.5,12.345,28.5,27.572V438.93z"/>
<path fill="#007AFF" d="M227,291.84c0,13.7-12.536,24.806-28,24.806l0,0c-15.464,0-28-11.106-28-24.806V136.806
	c0-13.7,12.536-24.806,28-24.806l0,0c15.464,0,28,11.106,28,24.806V291.84z"/>
<text transform="matrix(1 0 0 1 184.0195 267.8513)" fill="#FFFFFF" font-family="'MyriadPro-Regular'" font-size="33.1423">S6</text>
<text transform="matrix(1 0 0 1 184.0195 421.0002)" fill="#FFFFFF" font-family="'MyriadPro-Regular'" font-size="33.1423">S5</text>
<text transform="matrix(1 0 0 1 184.0195 581.3906)" fill="#FFFFFF" font-family="'MyriadPro-Regular'" font-size="33.1423">S4</text>
<text transform="matrix(1 0 0 1 184.0195 712.1029)" fill="#FFFFFF" font-family="'MyriadPro-Regular'" font-size="33.1423">S3</text>
<text transform="matrix(1 0 0 1 184.0195 850.3406)" fill="#FFFFFF" font-family="'MyriadPro-Regular'" font-size="33.1423">S2</text>
<text transform="matrix(1 0 0 1 184.0194 990.6293)" fill="#FFFFFF" font-family="'MyriadPro-Regular'" font-size="33.1423">S1</text>
<text transform="matrix(1 0 0 1 116.1877 67.5194)" font-family="'MyriadPro-Regular'" font-size="53">Legend</text>
</svg>
